#!OML:ASF H:\Terrain\Patient Classification 1\Walking\liu\liu.ASF
:FULLY-SPECIFIED
:DEGREES
388
root 9.462830 17.084999 18.130600 5.897740 -0.246654 -5.053730
lowerback -3.230385 1.235375 0.831120
upperback -0.059947 1.526310 1.667340
thorax 1.700890 0.760545 1.399405
lowerneck -9.619850 -3.105815 -6.654150
upperneck 10.880000 -4.056440 6.664750
head 5.695650 -1.624905 2.942405
rclavicle 0.000000 -0.000000
rhumerus -13.932350 8.177650 -41.565750
rradius 21.841299
rwrist -10.519600
rhand -15.782500 -11.374750
rfingers 3.562510
rthumb -2.414365 -26.337200
lclavicle 0.000000 -0.000000
lhumerus -25.309601 -5.794850 47.698700
lradius 13.112550
lwrist 4.814000
lhand -6.522350 -11.269750
lfingers 3.562510
lthumb 6.525050 3.516120
rfemur 1.171395 2.600980 15.689950
rtibia 7.347700
rfoot -7.943900 2.847225
rtoes -7.406700
lfemur -20.395700 1.331440 -7.706750
ltibia 14.713300
lfoot -7.259450 4.602085
ltoes -6.292600
389
root 9.472780 17.084499 18.273500 5.880580 -0.554437 -4.798310
lowerback -3.328265 1.320195 0.685860
upperback 0.042141 1.644850 1.627455
thorax 1.851650 0.816295 1.459630
lowerneck -9.760450 -3.174165 -6.690700
upperneck 10.841750 -4.121780 6.668150
head 5.721500 -1.652100 2.936165
rclavicle 0.000000 -0.000000
rhumerus -13.523650 8.141200 -41.535252
rradius 21.454451
rwrist -10.580500
rhand -16.148550 -11.007450
rfingers 3.562510
rthumb -2.767815 -25.961300
lclavicle 0.000000 -0.000000
lhumerus -25.299351 -5.855700 47.785149
lradius 13.128800
lwrist 4.953040
lhand -6.464700 -10.809600
lfingers 3.562510
lthumb 6.580650 3.972695
rfemur 1.803870 2.752120 15.527950
rtibia 6.698750
rfoot -7.723150 2.865200
rtoes -6.829650
lfemur -20.404449 1.267950 -7.841400
ltibia 13.986950
lfoot -7.458600 4.716985
ltoes -5.267300
390
root 9.477010 17.074100 18.400101 5.946400 -0.646740 -5.138510
lowerback -3.385815 1.341875 0.781570
upperback 0.062716 1.660795 1.695980
thorax 1.906225 0.825000 1.483065
lowerneck -9.745400 -3.178085 -6.671450
upperneck 10.797800 -4.116135 6.614850
head 5.697350 -1.654610 2.911170
rclavicle -0.000000 -0.000000
rhumerus -13.289900 8.191500 -41.559650
rradius 21.172100
rwrist -10.581450
rhand -16.557899 -11.364650
rfingers 3.562510
rthumb -3.163000 -26.307400
lclavicle -0.000000 -0.000000
lhumerus -25.383499 -5.708100 47.781200
lradius 13.192400
lwrist 4.983220
lhand -6.509500 -10.864950
lfingers 3.562510
lthumb 6.537400 3.920140
rfemur 2.384195 2.966710 15.742000
rtibia 5.994550
rfoot -7.492950 2.718270
rtoes -6.572850
lfemur -20.576599 1.138250 -7.559250
ltibia 13.319400
lfoot -7.486100 4.848155
ltoes -6.090850
391
root 9.487060 17.051701 18.525900 5.999630 -0.737290 -5.766120
lowerback -3.444690 1.375890 1.051865
upperback 0.093520 1.676695 1.794670
thorax 1.980650 0.836685 1.441155
lowerneck -9.743800 -3.143320 -6.665350
upperneck 10.738900 -4.071460 6.649500
head 5.669350 -1.630090 2.929070
rclavicle -0.000000 -0.000000
rhumerus -13.148200 8.149600 -41.576500
rradius 21.022600
rwrist -10.496050
rhand -16.115801 -11.021550
rfingers 3.562510
rthumb -2.736165 -25.976250
lclavicle -0.000000 -0.000000
lhumerus -25.453850 -5.515950 47.718300
lradius 13.273500
lwrist 4.920695
lhand -6.274700 -10.862500
lfingers 3.562510
lthumb 6.763750 3.907820
rfemur 2.990645 2.892400 16.057400
rtibia 5.194100
rfoot -7.240700 2.871030
rtoes -7.112700
lfemur -20.759850 0.926415 -7.038100
ltibia 12.692650
lfoot -7.557750 4.995205
ltoes -8.340450
392
root 9.503350 17.037901 18.660500 5.923810 -0.811229 -6.141150
lowerback -3.415775 1.408235 1.244310
upperback 0.113290 1.702320 1.851950
thorax 1.992145 0.852595 1.395165
lowerneck -9.744550 -3.132205 -6.711100
upperneck 10.725100 -4.052375 6.697750
head 5.665950 -1.619805 2.958640
rclavicle -0.000000 -0.000000
rhumerus -13.127150 8.068250 -41.603199
rradius 20.960251
rwrist -10.362850
rhand -15.856700 -10.677450
rfingers 3.562510
rthumb -2.486010 -25.638300
lclavicle -0.000000 -0.000000
lhumerus -25.579201 -5.360650 47.696499
lradius 13.351900
lwrist 4.897335
lhand -6.010050 -10.762500
lfingers 3.562510
lthumb 7.018800 3.990485
rfemur 3.600315 2.897210 16.216801
rtibia 4.534905
rfoot -7.116350 2.913950
rtoes -7.721850
lfemur -20.776550 0.681015 -6.681600
ltibia 12.038450
lfoot -7.702700 5.018600
ltoes -8.613500
393
root 9.520570 17.038700 18.796900 5.960240 -0.813066 -6.275270
lowerback -3.430560 1.424315 1.311420
upperback 0.075592 1.718065 1.880335
thorax 1.963100 0.861495 1.388175
lowerneck -9.596450 -3.120405 -6.772350
upperneck 10.731550 -4.037210 6.703700
head 5.640100 -1.622730 2.975370
rclavicle 0.000000 0.000000
rhumerus -13.188500 8.098300 -41.664299
rradius 20.899599
rwrist -10.376200
rhand -16.026751 -10.738500
rfingers 3.562510
rthumb -2.650185 -25.695351
lclavicle 0.000000 0.000000
lhumerus -25.771650 -5.269500 47.768002
lradius 13.390800
lwrist 4.967800
lhand -5.950700 -11.779550
lfingers 3.562510
lthumb 7.076000 2.969470
rfemur 4.271760 2.869500 16.242399
rtibia 3.633570
rfoot -6.548050 2.913480
rtoes -7.189100
lfemur -20.849649 0.296196 -6.404200
ltibia 11.492800
lfoot -7.947300 5.231800
ltoes -7.416100
394
root 9.535300 17.042500 18.931101 6.315230 -0.950264 -5.793910
lowerback -3.640010 1.439860 1.024415
upperback 0.042485 1.756610 1.816810
thorax 2.031660 0.875350 1.497485
lowerneck -9.481550 -3.092795 -6.813300
upperneck 10.670000 -3.999820 6.729100
head 5.591900 -1.610535 2.996950
rclavicle -0.000000 0.000000
rhumerus -13.118400 8.079250 -41.719299
rradius 20.772150
rwrist -10.299700
rhand -15.759100 -11.096950
rfingers 3.562510
rthumb -2.391755 -26.059950
lclavicle -0.000000 0.000000
lhumerus -25.852551 -5.190650 47.823448
lradius 13.347950
lwrist 4.914245
lhand -5.129750 -10.043750
lfingers 3.562510
lthumb 7.866850 4.646460
rfemur 5.087450 2.914220 15.917150
rtibia 2.097790
rfoot -5.518500 2.997965
rtoes -5.492500
lfemur -21.076599 -0.178643 -6.385900
ltibia 11.020250
lfoot -8.121750 5.575150
ltoes -6.115200
395
root 9.534890 17.026300 19.070101 6.268480 -1.117140 -6.577010
lowerback -3.669585 1.500260 1.333785
upperback 0.098716 1.802020 1.921770
thorax 2.118100 0.902720 1.443770
lowerneck -9.533800 -3.086780 -6.730650
upperneck 10.627500 -3.986095 6.656200
head 5.576550 -1.603735 2.954445
rclavicle 0.000000 0.000000
rhumerus -12.980750 7.945850 -41.771950
rradius 20.607450
rwrist -10.059450
rhand -15.383250 -11.429350
rfingers 3.562510
rthumb -2.028845 -26.399900
lclavicle 0.000000 0.000000
lhumerus -25.897350 -5.082550 47.798100
lradius 13.334650
lwrist 4.688485
lhand -5.134300 -10.312250
lfingers 3.562510
lthumb 7.862450 4.378340
rfemur 6.414400 2.982705 16.338850
rtibia -0.000000
rfoot -4.393860 3.021740
rtoes -4.455325
lfemur -21.147800 -0.541335 -5.600950
ltibia 10.629950
lfoot -8.042600 6.000950
ltoes -6.212550
396
root 9.553050 17.007000 19.214300 6.184070 -1.191250 -6.942150
lowerback -3.681520 1.565810 1.551460
upperback 0.161223 1.865050 1.956685
thorax 2.200240 0.938090 1.369860
lowerneck -9.667450 -3.142740 -6.709050
upperneck 10.671100 -4.040745 6.583750
head 5.622850 -1.629990 2.913980
rclavicle -0.000000 -0.000000
rhumerus -12.912050 7.822000 -41.768299
rradius 20.482849
rwrist -9.967250
rhand -15.385800 -11.186100
rfingers 3.562510
rthumb -2.031315 -26.156601
lclavicle -0.000000 -0.000000
lhumerus -25.951750 -5.047800 47.834148
lradius 13.387100
lwrist 4.534190
lhand -5.959350 -12.507950
lfingers 3.562510
lthumb 7.067700 2.241615
rfemur 6.757500 2.988365 16.492250
rtibia -0.000000
rfoot -4.389755 3.110120
rtoes -4.119830
lfemur -21.140350 -1.120560 -5.020550
ltibia 10.265050
lfoot -7.876650 6.919150
ltoes -8.239100
397
root 9.579440 16.983900 19.367599 6.151360 -1.388660 -6.853350
lowerback -3.720235 1.630410 1.563515
upperback 0.185985 1.947555 1.933435
thorax 2.248540 0.979410 1.352080
lowerneck -9.712850 -3.189550 -6.803800
upperneck 10.725550 -4.084870 6.611200
head 5.665050 -1.653095 2.935300
rclavicle -0.000000 -0.000000
rhumerus -12.929800 7.775200 -41.789299
rradius 20.405800
rwrist -9.985150
rhand -15.425250 -10.999350
rfingers 3.562510
rthumb -2.069375 -25.969151
lclavicle -0.000000 -0.000000
lhumerus -26.035549 -5.076000 47.945999
lradius 13.361850
lwrist 4.466005
lhand -6.167900 -13.512550
lfingers 3.562510
lthumb 6.866650 1.250825
rfemur 7.099900 3.041130 16.387501
rtibia 0.000000
rfoot -4.430620 3.159600
rtoes -4.688935
lfemur -21.198151 -1.724620 -4.702955
ltibia 10.112200
lfoot -7.857750 7.690800
ltoes -9.020350
